# xmcd
#
# Track frame offsets: 
#        150
#        14641
#        30891
#        51531
#        62122
#        81323
#        99329
#        113049
#        130957
#        143528
#
# Disc length: 2144 seconds
#
# Revision: 3
# Processed by: cddbd v1.5.2PL0 Copyright (c) Steve Scherf et al.
# Submitted via: ExactAudioCopyFreeDBPlugin 1.0
#
DISCID=82085e0a
DTITLE=The Temperance Movement - White Bear {2016,UK,Earache,MOSH556CD
DTITLE=}
DYEAR=2015
DGENRE=Rock
TTITLE0=Three Bulleits
TTITLE1=Get Yourself Free
TTITLE2=A Pleasant Peace I Feel
TTITLE3=Modern Massacre
TTITLE4=Battle Lines
TTITLE5=White Bear
TTITLE6=Oh Lorraine
TTITLE7=Magnify
TTITLE8=The Sun And The Moon Roll Around Too Soon
TTITLE9=I Hope I'm Not Losing My Mind
EXTD=YEAR: 2015
EXTT0=
EXTT1=
EXTT2=
EXTT3=
EXTT4=
EXTT5=
EXTT6=
EXTT7=
EXTT8=
EXTT9=
PLAYORDER=
